<svg id="Capa_1" enable-background="new 0 0 512 512" height="512" viewBox="0 0 512 512" width="512" xmlns="http://www.w3.org/2000/svg"><g><g><g><path d="m492.218 71.835c0-14.321-11.651-25.971-25.971-25.971h-5.8v-2.753c.001-23.771-19.339-43.111-43.11-43.111h-320.048c-23.771 0-43.11 19.34-43.11 43.111v19.73h-7.879c-14.622 0-26.517 11.895-26.517 26.517s11.895 26.517 26.517 26.517h7.879v30.286h-7.879c-14.622 0-26.517 11.895-26.517 26.517s11.895 26.517 26.517 26.517h7.879v30.287h-7.879c-14.622 0-26.517 11.895-26.517 26.517s11.895 26.517 26.517 26.517h7.879v30.287h-7.879c-14.622 0-26.517 11.895-26.517 26.517s11.895 26.517 26.517 26.517h7.879v30.286h-7.879c-14.622 0-26.517 11.895-26.517 26.517s11.895 26.517 26.517 26.517h7.879v19.73c0 23.771 19.339 43.111 43.11 43.111h320.048c23.771 0 43.111-19.34 43.111-43.111v-28.707c0-4.145-3.36-7.505-7.505-7.505s-7.505 3.36-7.505 7.505v28.707c0 15.495-12.606 28.101-28.101 28.101h-320.048c-15.495 0-28.101-12.606-28.101-28.101v-19.73h7.879c14.622 0 26.517-11.895 26.517-26.517s-11.895-26.517-26.517-26.517h-7.879v-30.286h7.879c14.622 0 26.517-11.895 26.517-26.517s-11.895-26.517-26.517-26.517h-7.879v-30.287h7.879c14.622 0 26.517-11.895 26.517-26.517s-11.895-26.517-26.517-26.517h-7.879v-30.287h7.879c14.622 0 26.517-11.895 26.517-26.517s-11.895-26.517-26.517-26.517h-7.879v-30.286h7.879c14.622 0 26.517-11.895 26.517-26.517s-11.895-26.517-26.517-26.517h-7.879v-19.73c0-15.495 12.606-28.101 28.101-28.101h320.048c15.495 0 28.101 12.606 28.101 28.101v361.989c0 4.145 3.36 7.505 7.505 7.505s7.505-3.36 7.505-7.505v-122.082h5.8c14.32 0 25.971-11.65 25.971-25.971v-37.116c0-7.218-2.962-13.755-7.731-18.466 4.769-4.711 7.731-11.248 7.731-18.466v-37.116c0-7.218-2.962-13.755-7.731-18.466 4.769-4.711 7.731-11.248 7.731-18.466v-37.116zm-415.151 339.3c6.345 0 11.507 5.163 11.507 11.507s-5.162 11.507-11.507 11.507h-30.768c-6.345 0-11.507-5.163-11.507-11.507s5.162-11.507 11.507-11.507zm0-83.321c6.345 0 11.507 5.163 11.507 11.507 0 6.345-5.162 11.507-11.507 11.507h-30.768c-6.345 0-11.507-5.163-11.507-11.507 0-6.345 5.162-11.507 11.507-11.507zm0-83.321c6.345 0 11.507 5.163 11.507 11.507s-5.162 11.507-11.507 11.507h-30.768c-6.345 0-11.507-5.163-11.507-11.507s5.162-11.507 11.507-11.507zm0-83.322c6.345 0 11.507 5.163 11.507 11.507 0 6.345-5.162 11.507-11.507 11.507h-30.768c-6.345 0-11.507-5.163-11.507-11.507 0-6.345 5.162-11.507 11.507-11.507zm0-83.321c6.345 0 11.507 5.163 11.507 11.507 0 6.345-5.162 11.507-11.507 11.507h-30.768c-6.345 0-11.507-5.163-11.507-11.507 0-6.345 5.162-11.507 11.507-11.507zm400.141 179.197c0 6.044-4.917 10.961-10.961 10.961h-5.8v-59.038h5.8c6.044 0 10.961 4.917 10.961 10.961zm0-74.048c0 6.044-4.917 10.961-10.961 10.961h-5.8v-59.038h5.8c6.044 0 10.961 4.917 10.961 10.961zm0-74.048c0 6.044-4.917 10.961-10.961 10.961h-5.8v-59.039h5.8c6.044 0 10.961 4.917 10.961 10.961z"/><path d="m218.191 221.046 17.55-10.921c12.831-7.985 17.081-24.558 9.675-37.731l-24.662-43.869c-7.382-13.132-23.714-18.132-37.183-11.386l-15.018 7.523c-.078.039-.155.08-.231.121-9.912 5.405-33.456 21.383-38.006 52.953-5.689 39.48 19.759 87.83 75.637 143.708 36.411 36.411 92.481 83.014 143.706 75.637 31.571-4.549 47.55-28.093 52.955-38.005.042-.077.082-.154.121-.232l7.523-15.018c6.748-13.469 1.747-29.801-11.385-37.183l-43.87-24.662c-13.174-7.404-29.747-3.154-37.731 9.675l-10.943 17.585c-2.129 3.461-6.932 4.033-9.812 1.153l-79.514-79.514c-2.844-2.847-2.361-7.65 1.188-9.834zm111.826 78.541c3.732-5.997 11.476-7.983 17.632-4.521l43.87 24.662c6.136 3.45 8.474 11.081 5.32 17.376l-3.828 7.641-67.487-37.939zm-137.86-117.667 15.772 28.056c-9.642 7.895-10.517 22.537-1.538 31.517l79.515 79.515c8.995 8.995 23.656 8.078 31.52-1.536l68.319 38.407c-6.657 9.629-18.638 21.524-38.224 24.346-34.053 4.908-79.338-19.78-130.953-71.395-51.614-51.614-76.302-96.897-71.394-130.953 2.822-19.586 14.717-31.567 24.346-38.224l5.437 9.671c1.377 2.45 3.925 3.828 6.549 3.828 1.245 0 2.508-.31 3.671-.964 3.613-2.032 4.895-6.607 2.864-10.22l-5.387-9.581 7.641-3.828c6.293-3.155 13.926-.816 17.376 5.321l24.662 43.87c3.461 6.155 1.475 13.9-4.521 17.632l-7.219 4.492-15.351-27.308c-2.031-3.614-6.606-4.896-10.22-2.865s-4.896 6.606-2.865 10.219z"/></g></g></g></svg>